<?xml version="1.0" encoding="utf-8"?>
<!-- Generator: Adobe Illustrator 24.3.0, SVG Export Plug-In . SVG Version: 6.00 Build 0)  -->
<svg version="1.1" id="Layer_1" xmlns="http://www.w3.org/2000/svg" xmlns:xlink="http://www.w3.org/1999/xlink" x="0px" y="0px" viewBox="0 0 317.2 522" style="enable-background:new 0 0 317.2 522;" xml:space="preserve">
  <style type="text/css">
	.st0{fill:#6B6C6D;}
</style>
  <g id="Layer_2_1_">
    <g id="Layer_1-2">
      <path class="st0" d="M280.8,0H46.4C26.3,0,10,16.3,10,36.4v398.8l0,0v40.4c0,20.1,16.3,36.4,36.4,36.4h234.4
			c20.1,0,36.4-16.3,36.4-36.4V36.4C317.2,16.3,300.9,0,280.8,0z M300.1,475.6c0,10.7-8.7,19.3-19.3,19.3H44.7
			c-10.6,0-19.2-8.6-19.2-19.2l0,0v-32h274.6V475.6z M300.1,426.7H27.1V85.3h273.1V426.7z M300.1,68.3H27.1V36.4
			c0-10.7,8.7-19.3,19.3-19.3h234.4c10.7,0,19.3,8.7,19.3,19.3V68.3z" />
      <path class="st0" d="M206.3,34.1h-85.3c-4.7,0.2-8.4,4.1-8.2,8.8c0.2,4.5,3.8,8.1,8.2,8.2h85.3c4.7-0.2,8.4-4.1,8.2-8.8
			C214.4,37.9,210.8,34.3,206.3,34.1L206.3,34.1z" />
      <path class="st0" d="M206.3,460.8h-85.3c-4.7,0.2-8.4,4.1-8.2,8.8c0.2,4.5,3.8,8.1,8.2,8.2h85.3c4.7-0.2,8.4-4.1,8.2-8.8
			C214.4,464.6,210.8,461,206.3,460.8L206.3,460.8z" />
      <path class="st0" d="M219.4,294.4h-20.8v-20.2c4.8-5.8,8.8-12.1,12.1-18.9c1.4-0.2,2.7-0.7,4-1.2c5.8-2.8,11.1-9.5,14.1-18
			c3.5-9.8,3.1-20.2-0.8-25.9c0.5-10.6,0.2-40.2-18.4-60.9c-3-3.4-6.5-6.4-10.2-9c-3.3-19.7-19.4-34.3-39.5-34.3
			c-19.8,0-37.8,14.3-41.3,33.6c-7,3.9-13,9.3-17.7,15.7c-10.3,14.1-13.5,33.9-9.4,54.9c-5.3,5.3-10.8,16.1-6.9,27.4
			c1.8,5.1,4.9,9.8,8.8,13.5c3,2.9,10.5,3.7,13.8,4.2c3.4,7,7.6,13.6,12.4,19.7v19.4H98.5c-29.8,0-52.6,51.4-52.6,76.9
			c0,2.9,1.6,5.5,4.2,6.8c34.2,16.2,71.6,24.6,109.4,24.7c14.7,0,29.4-1.3,43.8-3.8c39.2-6.9,63.8-20.5,64.8-21.1
			c2.3-1.4,3.8-3.9,3.8-6.7C272,345.8,249.2,294.4,219.4,294.4z M107.9,222.4c3.2-3.8,12.4-15.1,18-27.6
			c11.8,12.2,36.9,26.7,90.5,26.8c0.2,3.3-0.3,6.5-1.4,9.6c-2,5.6-4.8,8.6-6.1,9.4c-3.6-1.2-7.5,0.6-9,4
			c-7.9,17.9-23.5,38.7-40.8,38.7C131.1,283.3,112.4,238.7,107.9,222.4z M159.9,120.7c8.8,0,15.6,4.4,20.4,11.2
			c-6.8-1.6-13.7-2.4-20.7-2.3l0,0c-7.6,0-15.2,0.9-22.6,2.7C141.8,125.3,151,120.7,159.9,120.7L159.9,120.7z M112.6,164
			c9.2-12.7,25-19.4,47-19.6l0,0c16,0,30.1,4.9,38.9,14.7c13.1,14.6,14.9,36.8,14.9,47.8c-39.1-0.5-59.6-9.1-70-16.4
			s-12.7-14.4-13-15.3c-0.6-3.7-4-6.3-7.8-6c-3.9,0.4-6.8,3.6-6.8,7.5c0,6.8-5.1,16.6-10.8,25C103,186.7,105.6,173.6,112.6,164z
			 M127,309.4c4.1,0,6.6-3,6.6-7.1v-12.9c8,5.3,16,8.7,25,8.7c9.2,0,18-3.5,26-9.1v13.4c0,3.9,3.1,7.1,7,7.1c0.1,0,0.2,0,0.2,0h7.9
			l-40.8,31.9l-40.8-31.9L127,309.4z M200.9,384.6c-47.4,8.3-96.1,2.1-139.9-17.6c2.3-20.6,18.4-52.3,34-56.8l59.5,46.5
			c2.7,2.1,6.4,2.1,9.1,0l59.5-46.5c15.6,4.5,31.8,36.4,34,57C248.9,371.1,228.8,379.7,200.9,384.6L200.9,384.6z" />
      <g>
        <g id="Layer_7">
          <path class="st0" d="M84.2,264c3.2,9.4,14,32.7,43.9,38.3c1.1,3,3.9,4.9,7.1,4.9h13.6c4.2,0.2,7.7-3.1,7.9-7.3
					c0.2-4.2-3.1-7.7-7.3-7.9c-0.2,0-0.4,0-0.6,0h-13.6c-2.2,0-4.2,0.9-5.6,2.5c-21.3-4-31.3-18.2-35.7-27.5
					c2.7,0.5,5.5,0.8,8.2,0.8V181c-4.5,0-9,0.7-13.3,2.1v-4c0.5-38.7,32.2-69.7,70.9-69.2c38,0.5,68.8,31.2,69.2,69.2v2.9
					c-3-0.6-6-0.9-9-0.9V268c24,0,43.4-19.5,43.4-43.5c0-15.2-7.9-29.3-20.9-37.1v-8.2c0.5-46.2-36.5-84-82.7-84.5
					c-46.2-0.5-84,36.5-84.5,82.7c0,0.6,0,1.2,0,1.8v11.2c-18.8,14.8-22.1,42.1-7.4,60.9C72.2,256.8,77.8,261.2,84.2,264L84.2,264z" />
        </g>
      </g>
      <ellipse class="st0" cx="158.9" cy="262.2" rx="8" ry="3.8" />
    </g>
  </g>
</svg>