<?xml version="1.0" encoding="utf-8" standalone="no"?>
<svg xmlns="http://www.w3.org/2000/svg" viewBox="0 0 317.2 522">
  <defs>
    <style>.cls-1{fill:#edffbb;}.cls-2{fill:#84bd00;}.cls-3{fill:#004fff;}</style>
  </defs>
  <g id="Layer_2">
    <g id="Layer_1-2">
      <path class="cls-1" d="M270.81,10H36.4A36.44,36.44,0,0,0,0,46.4V445.2H0v40.4A36.44,36.44,0,0,0,36.4,522H270.8a36.44,36.44,0,0,0,36.4-36.4V46.4A36.43,36.43,0,0,0,270.81,10Zm19.32,475.6a19.39,19.39,0,0,1-19.33,19.33H34.7a19.17,19.17,0,0,1-19.17-19.17v-32h274.6Zm0-48.93H17.07V95.33H290.13Zm0-358.4H17.07V46.4A19.36,19.36,0,0,1,36.4,27.07H270.8A19.36,19.36,0,0,1,290.13,46.4Z" />
      <path class="cls-1" d="M196.27,44.13H110.93a8.54,8.54,0,0,0,0,17.07h85.34a8.54,8.54,0,0,0,0-17.07Z" />
      <path class="cls-1" d="M196.27,470.8H110.93a8.54,8.54,0,0,0,0,17.07h85.34a8.54,8.54,0,0,0,0-17.07Z" />
      <path class="cls-2" d="M280.81,0H46.4A36.44,36.44,0,0,0,10,36.4V435.2h0v40.4A36.44,36.44,0,0,0,46.4,512H280.8a36.44,36.44,0,0,0,36.4-36.4V36.4A36.43,36.43,0,0,0,280.81,0Zm19.32,475.6a19.39,19.39,0,0,1-19.33,19.33H44.7a19.17,19.17,0,0,1-19.17-19.17v-32h274.6Zm0-48.93H27.07V85.33H300.13Zm0-358.4H27.07V36.4A19.36,19.36,0,0,1,46.4,17.07H280.8A19.36,19.36,0,0,1,300.13,36.4Z" />
      <path class="cls-2" d="M206.27,34.13H120.93a8.54,8.54,0,0,0,0,17.07h85.34a8.54,8.54,0,0,0,0-17.07Z" />
      <path class="cls-2" d="M206.27,460.8H120.93a8.54,8.54,0,0,0,0,17.07h85.34a8.54,8.54,0,0,0,0-17.07Z" />
      <path class="cls-2" d="M219.39,294.44H198.61V274.23a92.07,92.07,0,0,0,12.09-18.87,16,16,0,0,0,4-1.25c5.79-2.76,11.12-9.5,14.13-18,3.47-9.83,3.09-20.16-.75-25.88.51-10.62.2-40.2-18.4-60.95a55.44,55.44,0,0,0-10.25-9C196.16,120.63,180,106,159.9,106c-19.75,0-37.76,14.32-41.31,33.58a56.4,56.4,0,0,0-17.74,15.73c-10.27,14.06-13.49,33.92-9.41,54.93-5.3,5.27-10.85,16.12-6.86,27.45a34.73,34.73,0,0,0,8.84,13.54c3,2.87,10.51,3.71,13.76,4.21a103.53,103.53,0,0,0,12.43,19.69v19.35H98.48c-29.85,0-52.59,51.36-52.59,76.93a7.58,7.58,0,0,0,4.24,6.8A256.25,256.25,0,0,0,159.57,402.9a254,254,0,0,0,43.84-3.78c39.23-6.89,63.79-20.51,64.82-21.09a7.76,7.76,0,0,0,3.76-6.67C272,345.79,249.25,294.44,219.39,294.44Zm-111.5-72.05c3.23-3.78,12.42-15.09,18-27.59,11.75,12.24,36.94,26.69,90.47,26.77a22.59,22.59,0,0,1-1.44,9.6c-2,5.62-4.84,8.59-6.15,9.44a7.39,7.39,0,0,0-9,4c-7.94,17.87-23.51,38.72-40.84,38.72C131.11,283.34,112.42,238.66,107.89,222.39Zm52-101.68c8.81,0,15.63,4.41,20.42,11.23a89.38,89.38,0,0,0-20.71-2.32h0A99.81,99.81,0,0,0,137,132.27C141.81,125.26,151,120.71,159.9,120.71ZM112.61,164c9.25-12.66,25-19.43,47-19.6h0c16,0,30.13,4.94,38.89,14.68,13.15,14.62,14.91,36.81,14.86,47.76-39.05-.49-59.58-9.1-70-16.36s-12.72-14.43-13-15.31a7.24,7.24,0,0,0-7.8-6,7.49,7.49,0,0,0-6.79,7.51c0,6.79-5.1,16.56-10.75,25C103,186.68,105.55,173.63,112.61,164ZM127,309.44c4.07,0,6.62-3.05,6.62-7.12v-12.9c8,5.34,16,8.67,25,8.67,9.24,0,18-3.53,26-9.15v13.38a7.07,7.07,0,0,0,7.26,7.12h7.89l-40.82,31.93-40.82-31.93Zm73.86,75.19A240,240,0,0,1,60.91,367c2.26-20.6,18.4-52.31,34-56.77l59.52,46.55a7.39,7.39,0,0,0,9.08,0L223,310.24c15.63,4.47,31.83,36.39,34,57C248.86,371.13,228.79,379.72,200.85,384.63Z" />
      <g id="Layer_7">
        <path class="cls-3" d="M84.19,264.05c3.19,9.44,14,32.67,43.88,38.3a7.59,7.59,0,0,0,7.09,4.93h13.56a7.6,7.6,0,1,0,0-15.19H135.17a7.51,7.51,0,0,0-5.62,2.54c-21.28-4.05-31.32-18.16-35.72-27.51a42.75,42.75,0,0,0,8.22.8V181a43.45,43.45,0,0,0-13.33,2.09v-4a70.06,70.06,0,0,1,140.11,0V182a44.56,44.56,0,0,0-9-.93v86.88a43.45,43.45,0,0,0,22.52-80.6V179.1a83.57,83.57,0,1,0-167.13,0v11.25a43.38,43.38,0,0,0,9,73.7Z" />
      </g>
      <ellipse class="cls-2" cx="158.95" cy="262.24" rx="7.99" ry="3.76" />
    </g>
  </g>
</svg>