<?xml version="1.0" encoding="UTF-8"?>
<svg width="60px" height="60px" viewBox="0 0 60 60" version="1.1" xmlns="http://www.w3.org/2000/svg" xmlns:xlink="http://www.w3.org/1999/xlink">
    <!-- Generator: Sketch 52.5 (67469) - http://www.bohemiancoding.com/sketch -->
    <title>icon / Bireysel / Deactive / Kiraz Hesap_v2</title>
    <desc>Created with Sketch.</desc>
    <g id="icon-/-Bireysel-/-Deactive-/-Kiraz-Hesap_v2" stroke="none" stroke-width="1" fill="none" fill-rule="evenodd">
        <rect fill="#FFFFFF" x="0" y="0" width="60" height="60"></rect>
        <g id="icon-/-Bireysel-/-Deactive-/-Tasit">
            <rect id="Rectangle-14" x="0" y="0" width="60" height="60"></rect>
            <g id="kiraz" transform="translate(8.000000, 9.000000)" fill-rule="nonzero">
                <g transform="translate(0.393939, 0.000000)">
                    <path d="M2.85936286,35.7578947 C2.4018648,35.7578947 1.94436674,35.5315789 1.71561772,35.1921053 C0.114374514,32.5894737 -3.88578059e-16,29.5342105 1.37249417,27.0447368 C2.4018648,25.1210526 4.34623155,23.7631579 6.63372183,23.1973684 C8.80683761,22.7447368 11.2087024,23.0842105 13.3818182,24.2157895 C14.0680653,24.5552632 14.2968143,25.3473684 13.8393162,26.0263158 C13.4961927,26.7052632 12.6955711,26.9315789 12.009324,26.4789474 C10.5224553,25.6868421 8.80683761,25.3473684 7.20559441,25.8 C5.71872572,26.0263158 4.46060606,26.9315789 3.77435897,28.1763158 C2.85936286,29.8736842 2.97373737,31.9105263 4.11748252,33.7210526 C4.46060606,34.2868421 4.34623155,35.0789474 3.65998446,35.5315789 C3.43123543,35.6447368 3.08811189,35.7578947 2.85936286,35.7578947 Z" id="Shape" fill="#B8B8B8"></path>
                    <path d="M30.1948718,39.1526316 C29.7373737,39.1526316 29.2798757,38.9263158 29.0511267,38.5868421 C27.4498834,35.9842105 27.3355089,32.9289474 28.7080031,30.4394737 C30.8811189,26.4789474 36.2567211,25.2342105 40.6029526,27.6105263 C41.2891997,27.95 41.5179487,28.7421053 41.0604507,29.4210526 C40.7173271,30.1 39.9167055,30.3263158 39.2304584,29.8736842 C36.1423465,28.1763158 32.3679876,28.9684211 30.8811189,31.6842105 C29.9661228,33.3815789 30.0804973,35.4184211 31.2242424,37.2289474 C31.567366,37.7947368 31.4529915,38.5868421 30.7667444,39.0394737 C30.6523699,39.0394737 30.4236208,39.1526316 30.1948718,39.1526316 Z" id="Shape" fill="#B8B8B8"></path>
                    <path d="M36.5998446,40.6236842 C36.3710956,40.6236842 36.1423465,40.3973684 36.027972,40.1710526 C36.027972,39.8315789 36.1423465,39.6052632 36.4854701,39.4921053 C38.6585859,39.1526316 40.3742036,37.5684211 41.1748252,35.3052632 C41.2891997,34.9657895 41.6323232,34.8526316 41.8610723,34.9657895 C42.2041958,35.0789474 42.3185703,35.4184211 42.2041958,35.6447368 C41.4035742,38.3605263 39.2304584,40.1710526 36.5998446,40.6236842 C36.7142191,40.6236842 36.5998446,40.6236842 36.5998446,40.6236842 Z" id="Shape" fill="#B8B8B8"></path>
                    <path d="M8.80683761,37.1157895 C8.57808858,37.1157895 8.23496503,36.8894737 8.23496503,36.6631579 C8.23496503,36.3236842 8.46371406,36.0973684 8.69246309,35.9842105 C10.8655789,35.7578947 12.6955711,34.1736842 13.6105672,32.0236842 C13.7249417,31.6842105 14.0680653,31.5710526 14.4111888,31.6842105 C14.7543124,31.7973684 14.8686869,32.1368421 14.7543124,32.4763158 C13.6105672,35.0789474 11.4374514,36.7763158 8.80683761,37.1157895 C8.80683761,37.1157895 8.80683761,37.1157895 8.80683761,37.1157895 Z" id="Shape" fill="#B8B8B8"></path>
                    <path d="M8.69246309,39.0394737 C6.86247086,39.0394737 5.14685315,38.4736842 3.77435897,37.3421053 C1.94436674,35.9842105 0.800621601,34.0605263 0.571872572,31.9105263 C0.228749029,29.7605263 0.800621601,27.6105263 2.17311577,25.8 C3.54560995,23.9894737 5.37560218,22.8578947 7.66309246,22.6315789 C12.238073,21.9526316 16.3555556,25.1210526 17.0418026,29.5342105 C17.3849262,31.6842105 16.8130536,33.8342105 15.4405594,35.6447368 C14.0680653,37.4552632 12.1236985,38.5868421 9.95058275,38.8131579 C9.49308469,38.9263158 9.03558664,39.0394737 8.69246309,39.0394737 Z M8.69246309,23.65 C8.34933955,23.65 8.00621601,23.65 7.66309246,23.7631579 C3.77435897,24.3289474 1.02937063,27.95 1.6012432,31.7973684 C1.82999223,33.7210526 2.85936286,35.3052632 4.46060606,36.4368421 C5.94747475,37.5684211 7.89184149,38.0210526 9.72183372,37.7947368 C11.6662005,37.5684211 13.2674437,36.55 14.4111888,34.9657895 C15.554934,33.4947368 16.012432,31.5710526 15.783683,29.7605263 C15.2118104,26.2526316 12.1236985,23.65 8.69246309,23.65 Z" id="Shape" fill="#58595B"></path>
                    <path d="M35.9135975,42.6605263 C31.9104895,42.6605263 28.3648796,39.7184211 27.6786325,35.6447368 C27.3355089,33.4947368 27.9073815,31.3447368 29.2798757,29.5342105 C30.6523699,27.7236842 32.5967366,26.5921053 34.7698524,26.3657895 C39.3448329,25.6868421 43.4623155,28.8552632 44.1485625,33.2684211 C44.4916861,35.4184211 43.9198135,37.5684211 42.5473193,39.3789474 C41.1748252,41.1894737 39.3448329,42.3210526 37.0573427,42.5473684 C36.7142191,42.5473684 36.3710956,42.6605263 35.9135975,42.6605263 Z M35.9135975,27.3842105 C35.570474,27.3842105 35.2273504,27.3842105 34.8842269,27.4973684 C30.9954934,28.0631579 28.2505051,31.6842105 28.8223776,35.5315789 C29.3942502,39.3789474 33.0542347,42.0947368 36.9429681,41.5289474 C38.8873349,41.3026316 40.4885781,40.2842105 41.6323232,38.7 C42.7760684,37.2289474 43.2335664,35.3052632 43.0048174,33.4947368 C42.4329448,29.8736842 39.4592075,27.3842105 35.9135975,27.3842105 Z" id="Shape" fill="#58595B"></path>
                    <path d="M37.4004662,27.0447368 C37.0573427,27.0447368 36.8285936,26.8184211 36.8285936,26.4789474 C36.027972,15.3894737 26.3061383,4.75263158 21.5024087,1.69736842 C21.3880342,1.58421053 21.2736597,1.69736842 21.1592852,1.69736842 C21.0449106,1.69736842 21.0449106,1.81052632 21.0449106,1.92368421 C24.3617716,16.7473684 15.0974359,25.5736842 14.9830614,25.6868421 C14.7543124,25.9131579 14.4111888,25.9131579 14.1824398,25.6868421 C13.9536908,25.4605263 13.9536908,25.1210526 14.1824398,24.8947368 C14.2968143,24.7815789 23.1036519,16.4078947 19.9011655,2.26315789 C19.786791,1.69736842 20.01554,1.24473684 20.4730381,0.905263158 C20.9305361,0.565789474 21.6167832,0.565789474 22.0742813,0.905263158 C27.1067599,3.96052632 37.1717172,15.05 37.9723388,26.5921053 C37.9723388,26.7052632 37.7435897,27.0447368 37.4004662,27.0447368 C37.4004662,27.0447368 37.4004662,27.0447368 37.4004662,27.0447368 Z" id="Shape" fill="#58595B"></path>
                    <g id="Group" transform="translate(4.574981, 3.394737)">
                        <path d="M15.6693085,3.96052632 C15.6693085,3.96052632 8.23496503,-3.16842105 0.914996115,5.31842105 C0.914996115,5.31842105 7.43434343,11.3157895 15.6693085,3.96052632 Z" id="Shape" fill="#B8B8B8"></path>
                        <path d="M7.31996892,8.14736842 C3.2024864,8.14736842 0.571872572,5.77105263 0.571872572,5.65789474 L0.228749029,5.31842105 L0.571872572,4.86578947 C2.97373737,2.15 5.6043512,0.678947368 8.46371406,0.565789474 C12.8099456,0.339473684 16.1268065,3.39473684 16.241181,3.50789474 L16.6986791,3.96052632 L16.241181,4.41315789 C12.8099456,7.24210526 9.83620824,8.14736842 7.31996892,8.14736842 Z M1.71561772,5.31842105 C3.2024864,6.45 8.34933955,9.39210526 14.7543124,3.96052632 C13.7249417,3.16842105 11.3230769,1.58421053 8.34933955,1.69736842 C6.06184926,1.92368421 3.77435897,3.05526316 1.71561772,5.31842105 Z" id="Shape" fill="#58595B"></path>
                    </g>
                    <g id="Group" transform="translate(9.149961, 5.657895)">
                        <path d="M11.8949495,1.58421053 C11.8949495,1.58421053 1.48686869,1.01842105 1.6012432,12.1078947 C1.6012432,12.1078947 10.5224553,12.5605263 11.8949495,1.58421053 Z" id="Shape" fill="#B8B8B8"></path>
                        <path d="M1.71561772,12.6736842 C1.6012432,12.6736842 1.6012432,12.6736842 1.71561772,12.6736842 L1.02937063,12.6736842 L1.02937063,12.1078947 C1.02937063,8.48684211 2.05874126,5.65789474 4.11748252,3.73421053 C7.31996892,0.792105263 11.780575,0.905263158 11.8949495,1.01842105 L12.4668221,1.01842105 L12.3524476,1.58421053 C11.0943279,12.4473684 2.63061383,12.6736842 1.71561772,12.6736842 Z M11.2087024,2.15 C9.95058275,2.26315789 6.97684538,2.60263158 4.8037296,4.63947368 C3.08811189,6.22368421 2.17311577,8.6 2.05874126,11.5421053 C4.003108,11.4289474 9.83620824,10.4105263 11.2087024,2.15 Z" id="Shape" fill="#58595B"></path>
                    </g>
                </g>
                <polygon id="Shape" fill="#58595B" opacity="0.900000036" points="41.4570707 5.87589606 39.25 5.87589606 39.25 9.1702509 35.9393939 9.1702509 35.9393939 11.3664875 39.25 11.3664875 39.25 14.6608423 41.4570707 14.6608423 41.4570707 11.3664875 44.7676768 11.3664875 44.7676768 9.1702509 41.4570707 9.1702509"></polygon>
                <polygon id="Shape-Copy" fill="#58595B" opacity="0.900000036" points="4.41603535 0.385304659 2.76073232 0.385304659 2.76073232 2.85607079 0.277777778 2.85607079 0.277777778 4.50324821 2.76073232 4.50324821 2.76073232 6.97401434 4.41603535 6.97401434 4.41603535 4.50324821 6.8989899 4.50324821 6.8989899 2.85607079 4.41603535 2.85607079"></polygon>
                <polygon id="Shape-Copy-2" fill="#58595B" opacity="0.900000036" points="7.18939394 15.2580645 6.14393939 15.2580645 6.14393939 16.8185484 4.57575758 16.8185484 4.57575758 17.858871 6.14393939 17.858871 6.14393939 19.4193548 7.18939394 19.4193548 7.18939394 17.858871 8.75757576 17.858871 8.75757576 16.8185484 7.18939394 16.8185484"></polygon>
            </g>
        </g>
    </g>
</svg>