<?xml version="1.0" encoding="UTF-8"?>
<svg width="60px" height="60px" viewBox="0 0 60 60" version="1.1" xmlns="http://www.w3.org/2000/svg" xmlns:xlink="http://www.w3.org/1999/xlink">
    <!-- Generator: Sketch 52.5 (67469) - http://www.bohemiancoding.com/sketch -->
    <title>icon / Bireysel / Deactive /Kredi_v2</title>
    <desc>Created with Sketch.</desc>
    <g id="icon-/-Bireysel-/-Deactive-/Kredi_v2" stroke="none" stroke-width="1" fill="none" fill-rule="evenodd">
        <rect fill="#FFFFFF" x="0" y="0" width="60" height="60"></rect>
        <g id="money">
            <rect id="Rectangle-14" x="0" y="0" width="60" height="60"></rect>
            <g id="ihtiyac" transform="translate(3.000000, 8.000000)" fill-rule="nonzero">
                <path d="M18.5318182,43.3888889 C18.1636364,43.3888889 17.9181818,43.2666667 17.6727273,43.1444444 L0.981818182,32.2666667 C0.490909091,31.9 0.245454545,31.4111111 0.245454545,30.8 C0.245454545,30.1888889 0.490909091,29.7 0.981818182,29.4555556 C1.22727273,29.3333333 1.59545455,29.4555556 1.71818182,29.7 C1.84090909,29.9444444 1.84090909,30.3111111 1.59545455,30.4333333 C1.47272727,30.5555556 1.35,30.6777778 1.35,30.9222222 C1.35,31.1666667 1.47272727,31.2888889 1.59545455,31.4111111 L18.1636364,42.1666667 C18.4090909,42.2888889 18.6545455,42.2888889 18.7772727,42.1666667 L51.1772727,20.2888889 C51.3,20.1666667 51.4227273,20.0444444 51.4227273,19.8 C51.4227273,19.5555556 51.3,19.4333333 51.1772727,19.3111111 C50.9318182,19.1888889 50.8090909,18.8222222 50.9318182,18.5777778 C51.0545455,18.3333333 51.4227273,18.2111111 51.6681818,18.3333333 C52.1590909,18.5777778 52.4045455,19.1888889 52.5272727,19.6777778 C52.5272727,20.2888889 52.2818182,20.7777778 51.7909091,21.1444444 L19.3909091,43.1444444 C19.1454545,43.2666667 18.7772727,43.3888889 18.5318182,43.3888889 Z" id="Shape" fill="#58595B"></path>
                <path d="M18.7772727,40.9444444 C18.4090909,40.9444444 18.1636364,40.8222222 17.9181818,40.7 L1.22727273,29.8222222 C0.736363636,29.4555556 0.490909091,28.9666667 0.490909091,28.3555556 C0.490909091,27.7444444 0.736363636,27.2555556 1.22727273,26.8888889 C1.47272727,26.8888889 1.84090909,26.8888889 2.08636364,27.2555556 C2.20909091,27.5 2.20909091,27.8666667 1.96363636,27.9888889 C1.84090909,28.1111111 1.71818182,28.2333333 1.71818182,28.4777778 C1.71818182,28.7222222 1.84090909,28.8444444 1.96363636,28.9666667 L18.4090909,39.7222222 C18.6545455,39.8444444 18.9,39.8444444 19.0227273,39.7222222 L51.4227273,17.8444444 C51.5454545,17.7222222 51.6681818,17.6 51.6681818,17.3555556 C51.6681818,17.1111111 51.5454545,16.9888889 51.4227273,16.8666667 C51.1772727,16.7444444 51.0545455,16.3777778 51.1772727,16.1333333 C51.3,15.8888889 51.6681818,15.7666667 51.9136364,15.8888889 C52.4045455,16.1333333 52.65,16.7444444 52.7727273,17.2333333 C52.7727273,17.8444444 52.5272727,18.3333333 52.0363636,18.7 L19.7590909,40.5777778 C19.3909091,40.8222222 19.1454545,40.9444444 18.7772727,40.9444444 Z" id="Shape" fill="#58595B"></path>
                <path d="M19.0227273,38.5 C18.6545455,38.5 18.4090909,38.3777778 18.1636364,38.2555556 L1.47272727,27.3777778 C0.981818182,27.0111111 0.736363636,26.5222222 0.736363636,25.9111111 C0.736363636,25.3 0.981818182,24.8111111 1.47272727,24.5666667 C1.84090909,24.4444444 2.08636364,24.4444444 2.33181818,24.6888889 C2.57727273,24.9333333 2.45454545,25.3 2.20909091,25.4222222 C2.08636364,25.5444444 1.96363636,25.6666667 1.96363636,25.9111111 C1.96363636,26.1555556 2.08636364,26.2777778 2.20909091,26.4 L18.7772727,37.1555556 C19.0227273,37.2777778 19.2681818,37.2777778 19.3909091,37.1555556 L51.7909091,15.2777778 C51.9136364,15.1555556 52.0363636,15.0333333 52.0363636,14.7888889 C52.0363636,14.5444444 51.9136364,14.4222222 51.7909091,14.3 C51.5454545,14.1777778 51.4227273,13.8111111 51.5454545,13.5666667 C51.6681818,13.3222222 52.0363636,13.2 52.2818182,13.3222222 C52.7727273,13.5666667 53.0181818,14.1777778 53.1409091,14.6666667 C53.1409091,15.2777778 52.8954545,15.7666667 52.4045455,16.1333333 L20.0045455,38.1333333 C19.7590909,38.3777778 19.3909091,38.5 19.0227273,38.5 Z" id="Shape" fill="#58595B"></path>
                <path d="M19.0227273,35.9333333 C18.6545455,35.9333333 18.4090909,35.8111111 18.1636364,35.6888889 L1.47272727,24.9333333 C0.981818182,24.5666667 0.736363636,24.0777778 0.736363636,23.4666667 C0.736363636,22.8555556 0.981818182,22.3666667 1.47272727,22 L34.4863636,1.22222222 C34.9772727,0.855555556 35.7136364,0.855555556 36.3272727,1.22222222 L52.4045455,11 C52.8954545,11.2444444 53.1409091,11.8555556 53.2636364,12.3444444 C53.2636364,12.9555556 53.0181818,13.4444444 52.5272727,13.8111111 L20.0045455,35.6888889 C19.7590909,35.9333333 19.3909091,35.9333333 19.0227273,35.9333333 Z M2.08636364,23.1 C1.96363636,23.2222222 1.84090909,23.3444444 1.84090909,23.5888889 C1.84090909,23.8333333 1.96363636,23.9555556 2.08636364,24.0777778 L18.6545455,34.8333333 C18.9,34.9555556 19.1454545,34.9555556 19.2681818,34.8333333 L51.6681818,12.9555556 C51.7909091,12.8333333 51.9136364,12.7111111 51.9136364,12.4666667 C51.9136364,12.2222222 51.7909091,12.1 51.6681818,11.9777778 L35.5909091,2.2 C35.4681818,2.07777778 35.2227273,2.07777778 34.9772727,2.2 L2.08636364,23.1 Z" id="Shape" fill="#58595B"></path>
                <path d="M19.1454545,32.0222222 C18.9,32.0222222 18.5318182,31.9 18.2863636,31.7777778 L6.62727273,24.6888889 C6.13636364,24.4444444 5.89090909,23.9555556 5.89090909,23.4666667 C5.89090909,22.9777778 6.13636364,22.3666667 6.62727273,22.1222222 L34.7318182,4.03333333 C35.2227273,3.66666667 35.8363636,3.66666667 36.3272727,4.03333333 L47.7409091,10.7555556 C48.2318182,11 48.4772727,11.4888889 48.4772727,12.1 C48.4772727,12.5888889 48.2318182,13.2 47.7409091,13.4444444 L20.0045455,31.7777778 C19.7590909,32.0222222 19.3909091,32.0222222 19.1454545,32.0222222 Z M35.5909091,4.64444444 C35.4681818,4.64444444 35.3454545,4.64444444 35.2227273,4.76666667 L7.11818182,22.8555556 C6.87272727,22.9777778 6.75,23.2222222 6.75,23.4666667 C6.75,23.7111111 6.87272727,23.9555556 7.11818182,24.0777778 L18.7772727,31.1666667 C19.0227273,31.2888889 19.2681818,31.2888889 19.5136364,31.1666667 L47.3727273,12.7111111 C47.6181818,12.5888889 47.7409091,12.3444444 47.6181818,12.1 C47.6181818,11.8555556 47.4954545,11.6111111 47.25,11.4888889 L35.8363636,4.76666667 C35.8363636,4.64444444 35.7136364,4.64444444 35.5909091,4.64444444 Z" id="Shape" fill="#58595B"></path>
                <g id="Group" transform="translate(14.727273, 8.555556)">
                    <polygon id="Shape" fill="#B8B8B8" points="7.48636364 1.1 1.35 5.01111111 18.7772727 17.3555556 24.9136364 13.2"></polygon>
                    <path d="M18.7772727,18.0888889 L0.245454545,5.01111111 L7.48636364,0.366666667 L26.0181818,13.2 L18.7772727,18.0888889 Z M2.45454545,5.01111111 L18.7772727,16.6222222 L23.8090909,13.2 L7.48636364,1.83333333 L2.45454545,5.01111111 Z" id="Shape" fill="#58595B"></path>
                </g>
                <g id="Group" transform="translate(31.909091, 20.777778)">
                    <polygon id="Shape" fill="#B8B8B8" points="1.59545455 5.74444444 1.96363636 11.8555556 8.59090909 7.45555556 8.22272727 1.34444444"></polygon>
                    <path d="M1.47272727,12.9555556 L0.981818182,5.37777778 L8.83636364,0.122222222 L9.20454545,7.7 L1.47272727,12.9555556 Z M2.20909091,5.98888889 L2.57727273,10.7555556 L7.97727273,7.08888889 L7.73181818,2.44444444 L2.20909091,5.98888889 Z" id="Shape" fill="#58595B"></path>
                </g>
            </g>
        </g>
    </g>
</svg>