<?xml version="1.0" encoding="UTF-8"?>
<svg width="60px" height="60px" viewBox="0 0 60 60" version="1.1" xmlns="http://www.w3.org/2000/svg" xmlns:xlink="http://www.w3.org/1999/xlink">
    <!-- Generator: Sketch 52.5 (67469) - http://www.bohemiancoding.com/sketch -->
    <title>icon / Bireysel / Deactive / Taksitli_v2</title>
    <desc>Created with Sketch.</desc>
    <g id="icon-/-Bireysel-/-Deactive-/-Taksitli_v2" stroke="none" stroke-width="1" fill="none" fill-rule="evenodd">
        <rect fill="#FFFFFF" x="0" y="0" width="60" height="60"></rect>
        <g id="icon-/-Bireysel-/-Deactive-/-Tasit">
            <rect id="Rectangle-14" x="0" y="0" width="60" height="60"></rect>
            <g id="icons-fibabanka-03" transform="translate(5.000000, 5.000000)" fill-rule="nonzero">
                <path d="M42.6923077,48.5975 L6.92307692,48.5975 C5.25641026,48.5975 3.84615385,47.195 3.84615385,45.5375 L1.41025641,16.9775 C1.28205128,16.085 2.05128205,15.32 2.94871795,15.1925 C3.84615385,15.065 4.61538462,15.83 4.74358974,16.7225 L7.17948718,45.41 L42.8205128,45.41 C43.7179487,45.41 44.4871795,46.175 44.4871795,47.0675 C44.4871795,47.96 43.7179487,48.5975 42.6923077,48.5975 Z" id="Shape" fill="#B8B8B8"></path>
                <path d="M28.2051282,40.4375 C27.5641026,40.4375 27.0512821,40.055 26.7948718,39.545 C26.4102564,38.78 26.7948718,37.76 27.5641026,37.505 L40.1282051,31.7675 C40.8974359,31.385 41.9230769,31.7675 42.1794872,32.5325 C42.5641026,33.2975 42.1794872,34.3175 41.4102564,34.5725 L28.8461538,40.31 C28.5897436,40.4375 28.4615385,40.4375 28.2051282,40.4375 Z" id="Shape" fill="#B8B8B8"></path>
                <path d="M29.3589744,33.68 C28.7179487,33.68 28.2051282,33.2975 27.9487179,32.7875 C27.5641026,32.0225 27.9487179,31.0025 28.7179487,30.7475 L40.8974359,25.265 C41.6666667,24.8825 42.6923077,25.265 42.9487179,26.03 C43.3333333,26.795 42.9487179,27.815 42.1794872,28.07 L30.1282051,33.425 C29.8717949,33.5525 29.6153846,33.68 29.3589744,33.68 Z" id="Shape" fill="#B8B8B8"></path>
                <path d="M44.2307692,49.1075 L5.76923077,49.1075 C4.61538462,49.1075 3.58974359,48.215 3.58974359,46.94 L0.897435897,14.6825 C0.897435897,13.4075 1.79487179,12.515 3.07692308,12.515 L47.0512821,12.515 C48.2051282,12.515 49.2307692,13.4075 49.2307692,14.6825 L46.5384615,47.0675 C46.4102564,48.0875 45.3846154,49.1075 44.2307692,49.1075 Z M2.94871795,13.79 C2.56410256,13.79 2.17948718,14.1725 2.17948718,14.555 L4.87179487,46.94 C4.87179487,47.45 5.25641026,47.705 5.64102564,47.705 L44.2307692,47.705 C44.6153846,47.705 45,47.3225 45,46.94 L47.6923077,14.555 C47.6923077,14.1725 47.3076923,13.9175 46.9230769,13.9175 L2.94871795,13.9175 L2.94871795,13.79 Z" id="Shape" fill="#58595B"></path>
                <ellipse id="Oval" fill="#B8B8B8" cx="14.6153846" cy="18.89" rx="3.33333333" ry="3.315"></ellipse>
                <ellipse id="Oval" fill="#B8B8B8" cx="35.5128205" cy="18.89" rx="3.33333333" ry="3.315"></ellipse>
                <path d="M14.6153846,18.89 C14.2307692,18.89 13.974359,18.635 13.974359,18.2525 L13.974359,2.4425 C13.974359,1.1675 15,0.1475 16.2820513,0.1475 L33.974359,0.1475 C35.2564103,0.1475 36.2820513,1.1675 36.2820513,2.4425 L36.2820513,17.87 C36.2820513,18.2525 36.025641,18.5075 35.6410256,18.5075 C35.2564103,18.5075 35,18.2525 35,17.87 L35,2.4425 C35,1.9325 34.6153846,1.55 34.1025641,1.55 L16.1538462,1.55 C15.6410256,1.55 15.2564103,1.9325 15.2564103,2.4425 L15.2564103,18.125 C15.2564103,18.5075 15,18.89 14.6153846,18.89 Z" id="Shape" fill="#58595B"></path>
            </g>
        </g>
    </g>
</svg>